<svg width="169" height="169" viewBox="0 0 169 169" fill="none" xmlns="http://www.w3.org/2000/svg">
<circle cx="84.5" cy="84.5" r="83" stroke="#FF0000" stroke-width="3"/>
<path d="M89.1602 76.3594C94.6289 76.3594 98.9453 75.2656 102.109 73.0781C105.312 70.8906 106.914 66.9453 106.914 61.2422C106.914 55.1094 104.688 50.9297 100.234 48.7031C97.8516 47.5312 94.668 46.9453 90.6836 46.9453H62.207V76.3594H89.1602ZM50.5469 36.9258H90.3906C96.9531 36.9258 102.363 37.8828 106.621 39.7969C114.707 43.4688 118.75 50.2461 118.75 60.1289C118.75 65.2852 117.676 69.5039 115.527 72.7852C113.418 76.0664 110.449 78.7031 106.621 80.6953C109.98 82.0625 112.5 83.8594 114.18 86.0859C115.898 88.3125 116.855 91.9258 117.051 96.9258L117.461 108.469C117.578 111.75 117.852 114.191 118.281 115.793C118.984 118.527 120.234 120.285 122.031 121.066V123H107.734C107.344 122.258 107.031 121.301 106.797 120.129C106.562 118.957 106.367 116.691 106.211 113.332L105.508 98.9766C105.234 93.3516 103.145 89.582 99.2383 87.668C97.0117 86.6133 93.5156 86.0859 88.75 86.0859H62.207V123H50.5469V36.9258Z" fill="#FF0000"/>
<path d="M84.5 123C83.2 115.002 76.5145 108.725 68 107.5C76.5145 106.279 83.2 99.9985 84.5 92C85.7981 99.9985 92.4797 106.279 101 107.5C92.4797 108.725 85.7981 115.002 84.5 123Z" fill="#FF0000"/>
</svg>
